<svg id="Layer_4" data-name="Layer 4" xmlns="http://www.w3.org/2000/svg" viewBox="0 0 337.97 359.08"><path d="M138,572.73l85.5,2.81a26.8,26.8,0,0,0,21.68-11.14c23.1-31.69,95.51-118.92,181-100.43,0,0,20.08,10.31,18.26,36.56l.45,74.23L475,574.6l-.46-184c0-15.49-2.26-29.66-17.34-30L247.24,479.91,207,487.11c-13.61,2.44-26.06-8.32-26-22.51l.16-182,173.89-.7a18.55,18.55,0,0,1,6.39.93c18.95,6.36,20.91,42.6,21,44.54l1.18-93.18a14.46,14.46,0,0,0-14.31-14.82L137,216.46Z" transform="translate(-137.01 -216.46)"/></svg>